<svg id="Capa_1" enable-background="new 0 0 512 512" height="512" viewBox="0 0 512 512" width="512" xmlns="http://www.w3.org/2000/svg"><g><path d="m394.703 248.252c-14.543-15.667-32.63-27.139-52.551-33.587 12.767-17.558 20.311-39.148 20.311-62.469v-45.732c0-58.705-47.759-106.464-106.463-106.464s-106.463 47.759-106.463 106.463v45.732c0 23.322 7.543 44.911 20.31 62.469-19.92 6.448-38.007 17.919-52.55 33.586-21.31 22.957-33.046 52.86-33.046 84.2v119.55h30v60h313.496v-179.549c.001-31.34-11.734-61.242-33.044-84.199zm-215.166-96.057v-30.732h152.926v30.732c0 42.162-34.301 76.463-76.463 76.463s-76.463-34.301-76.463-76.463zm134.201-95.776c8.523 9.82 14.597 21.816 17.239 35.044h-95.906zm-57.738-26.419c10.555 0 20.617 2.15 29.771 6.035l-102.022 45.448c10.377-29.928 38.835-51.483 72.251-51.483zm-141.748 302.451c0-23.745 8.891-46.4 25.033-63.791 13.219-14.242 30.298-23.895 48.993-27.903l48.21 181.243h-122.236zm142.64 49.549h60.856c11.028 0 20 8.972 20 20s-8.972 20-20 20h-50.216zm140.856 100h-253.496v-30h173.496c27.57 0 50-22.43 50-50s-22.43-50-50-50h-68.836l-26.253-98.695c10.493 3.469 21.7 5.353 33.341 5.353 22.583 0 43.541-7.073 60.789-19.113 21.391 2.926 41.089 13.131 55.927 29.115 16.143 17.391 25.032 40.045 25.032 63.79z"/></g></svg>